/* XPM */
static const char *qtparted_xpm[] = {
/* columns rows colors chars-per-pixel */
"32 32 170 2",
"   c #0030002F0021",
".  c #04A506E70AAB",
"X  c #074709EA0DAE",
"o  c #08480A4A0C4C",
"O  c #05C60EAF1BDC",
"+  c #09DA0E0E1465",
"@  c #0D8E11510808",
"#  c #064610501F5F",
"$  c #0C0C11E71B06",
"%  c #107B0DB80298",
"&  c #125210D10889",
"*  c #135318180A8B",
"=  c #191914140141",
"-  c #189916160949",
";  c #1D9E1AFB0B9C",
":  c #068710D12020",
">  c #0B8115B62530",
",  c #0ACB17582A0A",
"<  c #0CED195A2B4B",
"1  c #10501B9C2C2C",
"2  c #12F320A134F5",
"3  c #159625253C8D",
"4  c #1ABB29AA3DDE",
"5  c #1FE0347438F9",
"6  c #21011D5E0A4B",
"7  c #2D2D24640283",
"8  c #2EAF29AA0ECF",
"9  c #23632E6E1293",
"0  c #2E2E29691151",
"q  c #26E730B11394",
"w  c #2DEE3F7F1F5F",
"e  c #31B22BEC0ECF",
"r  c #36362FF01050",
"t  c #400033B40384",
"y  c #393932F311D2",
"u  c #212131B236F7",
"i  c #26E73A3A31B2",
"p  c #0FD025E64747",
"a  c #139426664303",
"s  c #171728284182",
"d  c #129329EA4CCD",
"f  c #1ADB2D9849F4",
"g  c #14542C6C5050",
"h  c #18182F6F5292",
"j  c #1C7D30704DEE",
"k  c #1D8834B55757",
"l  c #191932B35959",
"z  c #12D332F362A2",
"x  c #1E1E39DA6383",
"c  c #26E73BBC4242",
"v  c #29693EBF4383",
"b  c #202037B85B5B",
"n  c #210139195A5A",
"m  c #23F93CFD62E3",
"M  c #33B447071697",
"N  c #3A7A41011ADB",
"B  c #3CBD4E0E1798",
"V  c #3E3E4B0B1899",
"C  c #34F547C82363",
"Z  c #33F447C83AFB",
"A  c #32F348C93DBE",
"S  c #25E642E36DEE",
"D  c #2E2E48886FAF",
"F  c #24E543837070",
"G  c #282846867434",
"H  c #2AAB498977F8",
"J  c #2B564BE17CBC",
"K  c #4AAB3C3C0444",
"L  c #4A4A42C315F6",
"P  c #4B0B44841919",
"I  c #48484F4F1F1F",
"U  c #450551311DBE",
"Y  c #541444040485",
"T  c #5B9B4A0A0505",
"R  c #55AB4CE21C9D",
"E  c #5B1B51511E1E",
"W  c #40C155D62060",
"Q  c #4E6F53F42303",
"!  c #46065B9B3575",
"~  c #5C5C539327E8",
"^  c #5C5C5A9A2969",
"/  c #4BEC67072323",
"(  c #4FB06D4D22A3",
")  c #4F8F65653434",
"_  c #561675B52727",
"`  c #59997B7B2727",
"'  c #5B1B7ABA2CED",
"]  c #5D7E7B9B3212",
"[  c #62E34FD00566",
"{  c #65E6525205C6",
"}  c #64E559591E9F",
"|  c #6E2E63432525",
" . c #6C2C63A33232",
".. c #74B467A72626",
"X. c #75B568682565",
"o. c #79B96C2C25A6",
"O. c #7DFE72723878",
"+. c #169741018181",
"@. c #16B246218D57",
"#. c #187247CE8F02",
"$. c #1A1248F18F6F",
"%. c #1C644BE09306",
"&. c #20764FDB9717",
"*. c #2FB051118303",
"=. c #213750BB97D7",
"-. c #248F53F49B20",
";. c #282857979E9E",
":. c #28FE58989FCA",
">. c #353555968626",
",. c #321256B78D8E",
"<. c #32F358589050",
"1. c #36365B5B92F3",
"2. c #2D6D5CF2A40E",
"3. c #316160F1A818",
"4. c #345763DFAB03",
"5. c #397962A2A0A0",
"6. c #38F96828AF6F",
"7. c #397968A8AFEF",
"8. c #3CDF6C53B387",
"9. c #42C3632393D3",
"0. c #410164A49999",
"q. c #43C46EAEAEEE",
"w. c #41976F85B4DF",
"e. c #43037070B49F",
"r. c #45317484BB93",
"t. c #49167784BD23",
"y. c #4A97796CBFB2",
"u. c #4DB67D0EC411",
"i. c #50B18030C757",
"p. c #5F6082E32AAB",
"a. c #6363824235F6",
"s. c #65E682023BBC",
"d. c #7CBCA8A83ABB",
"f. c #73F4961640C1",
"g. c #50D180C1C7A7",
"h. c #553B849FCBBE",
"j. c #589887C7CF0E",
"k. c #59A18939D048",
"l. c #5D408CB6D3DE",
"z. c #60C18FF0D6D6",
"x. c #616190C6D7EC",
"c. c #64F79463DB98",
"v. c #68A89802DF34",
"b. c #696998ADDFF4",
"n. c #6C7C9BF1E318",
"m. c #80C068280747",
"M. c #911175350848",
"N. c #97577A7A0889",
"B. c #8A4A7C7C3333",
"V. c #945483C32F6F",
"C. c #8242B0303DBE",
"Z. c #A56585C60929",
"A. c #AF0F9BDB3ABB",
"S. c #9D1D8E0E4141",
"D. c #8B8BBA7A4545",
"F. c #90D0BB3B5191",
"G. c #B6F6A5A54E0E",
"H. c #BAFAA7274181",
"J. c #9575C6A64C2C",
"K. c #9DFECEEF54B5",
"L. c #A020D15156D7",
"P. c #CE8EA7670BCC",
"I. c #EBEBBF3F0D6E",
"U. c #C949B4944B0B",
"Y. c #CE0DB9B94FD0",
"T. c #D23CBDBD53FE",
"R. c #F433C6050E0E",
"E. c #F777C8C80E8F",
"W. c #FF7FCF5F0EFF",
"Q. c None",
/* pixels */
"Q.Q.Q.Q.Q.Q.Q.Q.Q.Q.Q.Q.Q.Q.Q.Q.Q.Q.Q.Q.Q.Q.Q.Q.Q.Q.Q.Q.Q.Q.Q.Q.",
"Q.Q.Q.Q.Q.Q.Q.Q.Q.Q.Q.Q.Q.Q.Q.Q.Q.Q.Q.Q.Q.Q.Q.Q.Q.Q.Q.Q.Q.Q.Q.Q.",
"Q.Q.Q.Q.Q.Q.Q.Q.Q.Q.Q.Q.Q.Q.Q.  . + $ + .   Q.Q.Q.Q.Q.Q.Q.Q.Q.Q.",
"Q.Q.Q.Q.Q.Q.Q.Q.Q.Q.Q.Q.Q.X f >.q.u.g.g.t.<.n +   Q.Q.Q.Q.Q.Q.Q.",
"Q.Q.Q.Q.Q.Q.Q.Q.Q.Q.Q.+ m t.l.l.h.y.r.u.h.l.l.w.j   Q.Q.Q.Q.Q.Q.",
"Q.Q.Q.Q.Q.Q.Q.Q.Q.  3 q.l.u.4.%.@.@.@.@.$.:.r.l.h.S . Q.Q.Q.Q.Q.",
"Q.Q.Q.Q.Q.Q.Q.Q.  n h.j.3.$.=.8.u.k.k.u.8.=.@.2.k.j.n   Q.Q.Q.Q.",
"Q.Q.Q.Q.Q.Q.Q.  n j.u.&.&.y.v.b.l.h.j.c.b.c.6.@.2.l.y.> Q.Q.Q.Q.",
"Q.Q.Q.Q.Q.Q.  f j.y.$.2.c.c.8.=.%.$.%.%.4.l.v.8.@.8.l.H   Q.Q.Q.",
"Q.Q.Q.Q.Q.Q.> y.g.&.3.b.g.=.%.8.u.j.u.4.%.;.k.v.;.=.l.w.o Q.Q.Q.",
"Q.Q.Q.Q.Q.  ,.l.:.-.c.g.%.4.c.b.k.k.c.b.u.@.4.b.r.@.u.h.1 Q.Q.Q.",
"Q.Q.Q.Q.Q.2 j.r.$.h.l.&.4.v.u.x , , l u.b.8.#.j.k.@.8.k.s Q.Q.Q.",
"Q.Q.Q.Q.  *.l.;.2.b.4.=.v.y.,         h c.g.@.u.l.%.8.l.f Q.Q.Q.",
"Q.Q.Q.Q.X t.u.@.u.x.%.r.c.l           O g.l.%.u.c.%.8.k.3 Q.Q.Q.",
"Q.Q.Q.Q.2 j.8.%.x.u.%.l.u.#           > j.j.%.g.k.@.r.g.> Q.Q.Q.",
"Q.Q.Q.Q.j l.4.=.b.e.%.c.y.O           x v.w.%.c.r.%.j.e.o Q.Q.Q.",
"Q.Q.Q.Q.b z.4.=.n.r.%.l.j.d         < u.c.&.6.n.:.:.l.J @ Q.Q.Q.",
"Q.Q.Q.Q.k l.4.%.l.i.#.r.n.w.g # > a u.b.4.=.z.u.@.y.g.u * Q.Q.Q.",
"Q.Q.Q.Q.3 l.e.@.i.c.2.%.j.n.k.i.>.  9.4.%.g.c.-.2.l.,.M & Q.Q.Q.",
"Q.Q.Q.Q.$ u.h.$.3.n.h.%.%.w.j.z.0.  . $.g.v.2.%.h.t.i B ; Q.Q.Q.",
"Q.Q.Q.Q.. 1.z.4.@.u.n.i.2.#.#.#.+.    4 x.2.%.u.j.k ` L . Q.Q.Q.",
"Q.Q.Q.Q.. s g.j.-.#.r.n.n.k.u.u.j.+     a =.u.j.S ' V R Q.Q.Q.Q.",
"Q.Q.Q.Q.  9 *.l.u.2.@.2.r.j.z.z.j.3 % Y   D g.S ] ( o.% Q.Q.Q.Q.",
"Q.Q.Q.Q.  9 w <.j.j.6.%.#.#.#.#.@.z   Z.K   < a.p.| L Q.Q.Q.Q.Q.",
"Q.Q.Q.Q.  0 / C G u.z.z.u.w.w.r.u.j.$ 7 R.{   . - }   Q.Q.Q.Q.Q.",
"Q.Q.Q.Q.Q.; P p.] u J w.i.i.j.h.y.5.3   [ W.P.T .         Q.Q.Q.",
"Q.Q.Q.Q.Q.  R R / D.d.) Z c v Z ! s.F.U   K I.W.R.N.t       Q.Q.",
"Q.Q.Q.Q.Q.Q.. ..B.w ( C.J.L.L.K.J.d.( I ~   % M.R.W.W.[     Q.Q.",
"Q.Q.Q.Q.Q.Q.Q.  E H.S. .Q U U Q ^ O.G.Y.V.6     = m.Z.    Q.Q.Q.",
"Q.Q.Q.Q.Q.Q.Q.Q.  ; | A.U.T.T.T.U.A.X.e   Q.Q.          Q.Q.Q.Q.",
"Q.Q.Q.Q.Q.Q.Q.Q.Q.Q.  . ; r y 8 ;     Q.Q.Q.Q.Q.Q.      Q.Q.Q.Q.",
"Q.Q.Q.Q.Q.Q.Q.Q.Q.Q.Q.Q.Q.Q.Q.Q.Q.Q.Q.Q.Q.Q.Q.Q.Q.Q.Q.Q.Q.Q.Q.Q."
};
