/* XPM */
static const char *part_dos_xpm[] = {
"14 14 15 1",
" 	c None",
".	c #C01600",
"+	c #8C0000",
"@	c #281F3A",
"#	c #401DAC",
"$	c #535406",
"%	c #B5B500",
"&	c #552F43",
"*	c #A941AF",
"=	c #D0D029",
"-	c #BCB3A8",
";	c #330F15",
">	c #1A130A",
",	c #06040B",
"'	c #553B5D",
",@-  '@@ ',>' ",
"@-&  --,''''@-",
"@-'&'--,&'@'- ",
"@'---,'@'@'-&-",
"@'@--,',@''&'-",
">>,;>,;,>>>>>-",
"....#**#%===%-",
"....**&*=%$$=%",
".+;;*+;$$&*>>;",
".+-@*+; @@#$%-",
".+-@#+; @@#$=%",
".+- *.; =$$-%=",
".....&#*$%===%",
".++++@##@$%%%$"};
