/* XPM */
static char * part_os2_xpm[] = {
"14 14 16 1",
" 	c None",
".	c #F7FBFB",
"+	c #C1C1CE",
"@	c #A0A0A0",
"#	c #E2E7EB",
"$	c #D6D6DE",
"%	c #CECECE",
"&	c #EFEFF7",
"*	c #5161A6",
"=	c #C6D6EF",
"-	c #9CACD2",
";	c #6184D3",
">	c #BFC7E0",
",	c #E9ECF4",
"'	c #D2DAEF",
")	c #E7EFFF",
"              ",
"              ",
"     &$=>=&   ",
"  $#&%--;**;) ",
".+$&&,#>-**;;-",
"@@@++>,..#-;**",
"@@@@+>;->,';**",
"+@+$$#-**-;**$",
"&*+%#..=.---+ ",
" $@@%#....&## ",
"  .+@@+++++#  ",
"              ",
"              ",
"              "};
