/* XPM */
static char * part_freebsd_xpm[] = {
"14 14 15 1",
" 	c None",
".	c #D0CBD0",
"+	c #94696F",
"@	c #582F3D",
"#	c #5B4D62",
"$	c #A5969E",
"%	c #C7A9B1",
"&	c #EFEFEF",
"*	c #41222B",
"=	c #B3BFCA",
"-	c #DEDEE2",
";	c #95343D",
">	c #62252D",
",	c #EFD6D6",
"'	c #DEB5BD",
"    &+ .%'#   ",
"    $@'*;;+   ",
"    %*>>%&,   ",
"      +>%=@%  ",
"      $>;+>+. ",
"      &*>;;.$.",
"       @>>%+$.",
"       *>;>.  ",
"       **@>   ",
"       **@;   ",
"    &%+@@@+.& ",
"  .$+#+@@@$$=.",
"&$#%.+*@###=- ",
".+@#$..%%.&   "};
