/* XPM */
static const char *part_windows_xpm[] = {
"14 14 16 1",
" 	c None",
".	c #DAAC5A",
"+	c #293131",
"@	c #5A5252",
"#	c #101018",
"$	c #523931",
"%	c #B5D6DE",
"&	c #6BC6EF",
"*	c #185A63",
"=	c #311810",
"-	c #5A1808",
";	c #1087B9",
">	c #776F39",
",	c #DED6C6",
"'	c #E13F10",
")	c #63CE31",
"        ..@.  ",
"     .@######@",
"...@@+==-#@*+#",
",@.@@@'''=))*#",
"..,'@+'''#))*#",
" .,.@$'''=))@#",
"...'@$'-=#++##",
",...@$+#+#>>=#",
".$@+@$;;*#..>#",
"%%%&@+;;*=..>#",
" &%&@$;;*#..>#",
"%&%&@+**+#=-+#",
" %%&@@###++###",
".+@#@$..    .@"};
