/* XPM */
static char * part_beos_xpm[] = {
"14 14 15 1",
" 	c None",
".	c #7B84BD",
"+	c #9C9CDE",
"@	c #F79484",
"#	c #EF635A",
"$	c #2129AD",
"%	c #3942AD",
"&	c #525AB5",
"*	c #F74A42",
"=	c #C6C6C6",
"-	c #F71000",
";	c #EFC6C6",
">	c #F7B5A5",
",	c #D6D6DE",
"'	c #F7C6BD",
"+$.&..&       ",
" $&  ,$%      ",
" $.   &$  @>@ ",
" $&  ,%& '##*@",
" $$+&$&  *@  #",
" $&  .$.;-#>##",
" $.   .$;-;   ",
" $&   &$;-@  @",
" $&  =$% @-#@#",
"+%&..&+   @** ",
"              ",
"              ",
".$%$$&&&&*#*##",
".+++++++.@@@#@"};
