/* XPM */
static const char *part_linux_xpm[] = {
"14 14 16 1",
" 	c None",
".	c #CEC6BD",
"+	c #EFBD18",
"@	c #A57310",
"#	c #8C8C7B",
"$	c #B5AD94",
"%	c #9C9C94",
"&	c #C69C18",
"*	c #736B5A",
"=	c #080808",
"-	c #EFDEB5",
";	c #FFFFFF",
">	c #EFEFE7",
",	c #292918",
"'	c #BDBDB5",
")	c #45413D",
"     #=,%     ",
"     ====     ",
"     ))#='    ",
"     )+&,$    ",
"     *&$)*    ",
"    #.->%='   ",
"   .);;;-=,   ",
"   *'>;;;#=%  ",
"   ,;;>;;$=)  ",
"  '*>;;;>$=)  ",
" -++*>;;>&,+  ",
" +++&#;;.&++- ",
" ++++#%*=+++- ",
"  .+@#$$%@&   "};
