/* XPM */
static const char *tool_redo[] = {
"16 16 104 2",
"  	c None",
". 	c #E6ECDE",
"+ 	c #DDE9D5",
"@ 	c #DEEAD4",
"# 	c #DFEAD5",
"$ 	c #DCE8D3",
"% 	c #E3EBDA",
"& 	c #E6EBDE",
"* 	c #A2D69B",
"= 	c #6EC865",
"- 	c #5FC953",
"; 	c #71D064",
"> 	c #79D36C",
", 	c #5CC850",
"' 	c #64C65D",
") 	c #A4D69D",
"! 	c #E8ECE0",
"~ 	c #DFE8D8",
"{ 	c #6EC26B",
"] 	c #54CA53",
"^ 	c #81E581",
"/ 	c #AEF8AE",
"( 	c #BFFFBF",
"_ 	c #B6FBB6",
": 	c #8BE98B",
"< 	c #4AC449",
"[ 	c #89CB85",
"} 	c #EBEDE3",
"| 	c #DAE6D2",
"1 	c #5CB458",
"2 	c #23AA23",
"3 	c #3EB63D",
"4 	c #3DAE3C",
"5 	c #3AAC39",
"6 	c #43B642",
"7 	c #51D051",
"8 	c #6BF46B",
"9 	c #70FE70",
"0 	c #66F166",
"a 	c #31BA31",
"b 	c #A8D3A2",
"c 	c #EDEEE5",
"d 	c #75B971",
"e 	c #259724",
"f 	c #77BB73",
"g 	c #C5DDBE",
"h 	c #C9DFC2",
"i 	c #7FBF7B",
"j 	c #25B524",
"k 	c #26ED26",
"l 	c #33F233",
"m 	c #17DE17",
"n 	c #5BBB58",
"o 	c #E6EADE",
"p 	c #3D9A3B",
"q 	c #B3D3AD",
"r 	c #DBE4D4",
"s 	c #C0D8BA",
"t 	c #63AF60",
"u 	c #08BA08",
"v 	c #03F303",
"w 	c #00EB00",
"x 	c #24AF23",
"y 	c #B7D3B1",
"z 	c #C3D9BD",
"A 	c #E8EBE1",
"B 	c #83B77E",
"C 	c #0B810B",
"D 	c #00A200",
"E 	c #00B600",
"F 	c #00E200",
"G 	c #00EC00",
"H 	c #00C300",
"I 	c #00A500",
"J 	c #028C02",
"K 	c #308D2E",
"L 	c #DCE4D5",
"M 	c #72AB6E",
"N 	c #00A600",
"O 	c #00D400",
"P 	c #00D900",
"Q 	c #00DA00",
"R 	c #02C002",
"S 	c #379935",
"T 	c #BED4B7",
"U 	c #E4E8DC",
"V 	c #63A260",
"W 	c #069A05",
"X 	c #00CB00",
"Y 	c #01CA01",
"Z 	c #00B100",
"` 	c #318B30",
" .	c #C3D5BD",
"..	c #DFE4D8",
"+.	c #71A36D",
"@.	c #0A910A",
"#.	c #009D00",
"$.	c #237F21",
"%.	c #C2D3BC",
"&.	c #DDE3D6",
"*.	c #4E8F4C",
"=.	c #237B21",
"-.	c #A6C1A1",
";.	c #DEE4D7",
"                                ",
"                                ",
"        . + @ # $ %             ",
"    & * = - ; > , ' ) !         ",
"  ~ { ] ^ / ( ( _ : < [ }       ",
"| 1 2 3 4 5 6 7 8 9 0 a b c     ",
"d e f g     h i j k l m n o     ",
"p q         r s t u v w x y z z ",
"          A B C D E F G H I J K ",
"            L M N O P P Q R S T ",
"              U V W X Y Z `  .  ",
"                ..+.@.#.$.%.    ",
"                  &.*.=.-.      ",
"                    U ;.        ",
"                                ",
"                                "};
