/* XPM */
static const char *tool_new[] = {
"24 24 179 2",
"  	c None",
". 	c #000000",
"+ 	c #ADAD9C",
"@ 	c #959585",
"# 	c #DCDCC5",
"$ 	c #DFDFC8",
"% 	c #242424",
"& 	c #A7A796",
"* 	c #D7D7C1",
"= 	c #D9D9C3",
"- 	c #DCDCC4",
"; 	c #DDDDC7",
"> 	c #E1E1CA",
", 	c #A6A694",
"' 	c #D6D6BF",
") 	c #D8D8C2",
"! 	c #DBDBC4",
"~ 	c #DFDFC7",
"{ 	c #E3E3CB",
"] 	c #B2B29F",
"^ 	c #7C7C7C",
"/ 	c #646464",
"( 	c #D5D5BD",
"_ 	c #D5D5BF",
": 	c #D7D7C0",
"< 	c #DADAC3",
"[ 	c #DEDEC6",
"} 	c #E1E1C9",
"| 	c #E5E5CD",
"1 	c #E9E9D1",
"2 	c #343434",
"3 	c #A55A52",
"4 	c #7B1810",
"5 	c #E7E7E7",
"6 	c #373736",
"7 	c #B8B8A6",
"8 	c #D3D3BC",
"9 	c #D9D9C2",
"0 	c #DDDDC5",
"a 	c #E0E0C8",
"b 	c #E8E8D0",
"c 	c #ECECD4",
"d 	c #EEEED5",
"e 	c #ECECEC",
"f 	c #EDEDED",
"g 	c #3D3D37",
"h 	c #CECEB7",
"i 	c #E6E6CE",
"j 	c #EAEAD2",
"k 	c #AEC0C9",
"l 	c #738F9D",
"m 	c #5E7F88",
"n 	c #5A7B84",
"o 	c #841818",
"p 	c #EEEEE5",
"q 	c #3C3C3C",
"r 	c #8F8F80",
"s 	c #D0D0B9",
"t 	c #E4E4CB",
"u 	c #EAEAD1",
"v 	c #ECECD3",
"w 	c #79949D",
"x 	c #608796",
"y 	c #568D9C",
"z 	c #4288A4",
"A 	c #508DA7",
"B 	c #EEEEE6",
"C 	c #505050",
"D 	c #929282",
"E 	c #D1D1B9",
"F 	c #E7E7CF",
"G 	c #EBEBD2",
"H 	c #809CA7",
"I 	c #709CAB",
"J 	c #318B9E",
"K 	c #2F898E",
"L 	c #67B7D1",
"M 	c #89C6E1",
"N 	c #7E1810",
"O 	c #7D1810",
"P 	c #969686",
"Q 	c #D2D2BC",
"R 	c #E0E0C9",
"S 	c #E9E9D0",
"T 	c #9CB3BB",
"U 	c #6C98A8",
"V 	c #77BEDA",
"W 	c #79B9C8",
"X 	c #216B4A",
"Y 	c #42736B",
"Z 	c #C9EDFD",
"` 	c #797973",
" .	c #D8D8C1",
"..	c #DDDDC6",
"+.	c #7F9AA4",
"@.	c #5B9DB4",
"#.	c #96D8F1",
"$.	c #42846B",
"%.	c #8CAD9C",
"&.	c #6893A2",
"*.	c #889FA7",
"=.	c #98988F",
"-.	c #E4E4CC",
";.	c #5B7F8F",
">.	c #60A1B8",
",.	c #ACDEF2",
"'.	c #5A8C84",
").	c #5A8C73",
"!.	c #EDF4F0",
"~.	c #A1DBF4",
"{.	c #5593A4",
"].	c #E2E2CA",
"^.	c #53808A",
"/.	c #62AABF",
"(.	c #AFE3F7",
"_.	c #E2F7FF",
":.	c #94C6B5",
"<.	c #9EBFB3",
"[.	c #F8FFFF",
"}.	c #DEF6F9",
"|.	c #A3DCEF",
"1.	c #4E95A9",
"2.	c #BEBEAE",
"3.	c #EDEDD4",
"4.	c #6C8C96",
"5.	c #68A2B9",
"6.	c #A4D9F1",
"7.	c #DDF6FE",
"8.	c #659B86",
"9.	c #5A917B",
"0.	c #216342",
"a.	c #8CC9DC",
"b.	c #5E92A1",
"c.	c #708C9A",
"d.	c #4E4E4E",
"e.	c #EFEFD6",
"f.	c #9BB2BA",
"g.	c #5390A3",
"h.	c #80C6E0",
"i.	c #E5F9FF",
"j.	c #F4FEFF",
"k.	c #679D89",
"l.	c #307256",
"m.	c #438579",
"n.	c #57A0B3",
"o.	c #64899A",
"p.	c #EBEBD3",
"q.	c #F1F1D8",
"r.	c #F2F2D9",
"s.	c #729098",
"t.	c #629DB2",
"u.	c #86C6E1",
"v.	c #B3E1F5",
"w.	c #C3E8F6",
"x.	c #367E75",
"y.	c #4F949F",
"z.	c #6794A5",
"A.	c #78939C",
"B.	c #F0F0D7",
"C.	c #A5A594",
"D.	c #72919C",
"E.	c #568DA3",
"F.	c #6BA3B8",
"G.	c #64A6BC",
"H.	c #428285",
"I.	c #538FA0",
"J.	c #5E8F9D",
"K.	c #6F8E96",
"L.	c #BBBBA8",
"M.	c #F3F3DA",
"N.	c #CDCDB8",
"O.	c #4D4D45",
"P.	c #9DB1BB",
"Q.	c #6F8E99",
"R.	c #527A89",
"S.	c #567E89",
"T.	c #7E9EA2",
"U.	c #9AB1B9",
"V.	c #A6A696",
"                                                ",
"                    .                           ",
"                . . + .                         ",
"            . . @ # $ %                         ",
"        . . & * = - ; > .                       ",
"    . . , ' * * ) ! ~ { ] .                     ",
"  . ^ / ' ( _ : < [ } | 1 2             3 4 4   ",
"  . 5 6 7 8 * 9 0 a | b c d .         4 4 3     ",
"  . e f g h _ ! a i b j k l m n o   3 3         ",
"  . p p q r s a t u v w x y z A 4 4 o           ",
"  . B C D E - } F G H I J K L M 4 N O 4 o       ",
"  . . P Q ! R { S T U V W X Y Z 4 o 4 4         ",
"  . `  .9 ..> F u +.@.#.Y $.$.%.4 4 4 &.*.      ",
"  . =.! # $ -.F G ;.>.,.'.$.).!.4 4 ~.{.n       ",
"    . ~ a ].| 1 v ^./.(._.:.<.[.4 }.|.1.n       ",
"    . 2.| | b j 3.4.5.6.7.[.%.8.9.0.a.b.c.      ",
"      d.b 1 j 3.e.f.g.h.Z i.j.k.l.m.n.o.k       ",
"      . p.c 3.e.q.r.s.t.u.v.w.0.x.y.z.A.        ",
"        . e.B.q.r.1 C.D.E.F.G.H.I.J.K.          ",
"        . L.r.M.N.O..   P.Q.R.S.T.U.            ",
"          . M.V..                               ",
"            . .                                 ",
"                                                ",
"                                                "};
