/* XPM */
static const char * tool_format[] = {
"16 16 6 1",
" 	c None",
".	c #E6F0F9",
"+	c #000000",
"@	c #FFFFFF",
"#	c #929292",
"$	c #DBDBDB",
"                ",
"                ",
"       ++++++++ ",
"      +@@@@@@++#",
"     +@@@@@@+$+#",
"    +@@@@@@+$$+#",
"   +@@@@@@+$$+##",
"  +@@@@@@+$$+## ",
" +@@@@@@+$$+##  ",
"++++++++$$+##   ",
"+$$$$$$+$+##    ",
"+$$$$$$++##     ",
"++++++++##      ",
" ########       ",
"                ",
"                "};
