/* XPM */
static const char *tool_delete[] = {
/* columns rows colors chars-per-pixel */
"16 16 10 1",
"  c Gray0",
". c #000040004000",
"X c #400040000000",
"o c #580058005800",
"O c #800080008000",
"+ c #a000a000a400",
"@ c #c000c000c000",
"# c gainsboro",
"$ c Gray100",
"% c None",
/* pixels */
"%%%%%  # %%%%%%%",
"%%   #+X.    %%%",
"% $$$@@@O @@+ %%",
"% #+@$$$@@ooo %%",
"%%.O##++++OO %%%",
"%% +++OOooOo %%%",
"%% +$+#OOOoo %%%",
"%% +$+#OOOoo %%%",
"%% +$+#OOOoo %%%",
"%% +$+#OOOoo %%%",
"%% +$+#OOOoo %%%",
"%% +$+#OOOoo %%%",
"%% +$+#OOOoo %%%",
"%% #$+#OOOoo %%%",
"%%%  ##++O  %%%%",
"%%%%%     %%%%%%"
};
