/* XPM */
static const char *tool_disk[] = {
"20 21 82 1",
" 	c None",
".	c #FFFFFF",
"+	c #000000",
"@	c #F1F1F1",
"#	c #FCFCFC",
"$	c #303030",
"%	c #856D56",
"&	c #E6E6E6",
"*	c #A8845E",
"=	c #C28D52",
"-	c #EFD2AE",
";	c #F0CEA6",
">	c #E5C59C",
",	c #B59978",
"'	c #BF9060",
")	c #AB6D28",
"!	c #C58B4C",
"~	c #F0D1AE",
"{	c #EFCAA4",
"]	c #F3D6B8",
"^	c #F8E6D2",
"/	c #B39E84",
"(	c #DAA46A",
"_	c #C78D49",
":	c #C38844",
"<	c #886C4D",
"[	c #AB835B",
"}	c #F1D0AE",
"|	c #EFCDA8",
"1	c #EDCBA1",
"2	c #695B50",
"3	c #9E7C5C",
"4	c #ECC69E",
"5	c #ECC496",
"6	c #583413",
"7	c #AF8A60",
"8	c #966C3A",
"9	c #AC7C4E",
"0	c #ECC8A2",
"a	c #F2D1B1",
"b	c #75593E",
"c	c #A98C72",
"d	c #F1D7BA",
"e	c #EFCEA8",
"f	c #7A4E24",
"g	c #AE8A5E",
"h	c #5C3D1C",
"i	c #7E5328",
"j	c #EDCAA4",
"k	c #F1D0AC",
"l	c #73563E",
"m	c #DCDCDC",
"n	c #B5B5B5",
"o	c #A0A0A4",
"p	c #808080",
"q	c #C0C0C0",
"r	c #585858",
"s	c #82623E",
"t	c #795836",
"u	c #B0712E",
"v	c #D09659",
"w	c #DBA368",
"x	c #4E4E4C",
"y	c #AAAAAA",
"z	c #EEEEEE",
"A	c #F8E1C4",
"B	c #F2D2AC",
"C	c #E3B584",
"D	c #B77C38",
"E	c #B2712C",
"F	c #F5D8B4",
"G	c #F3D5B2",
"H	c #E8C298",
"I	c #CE8F4E",
"J	c #9C9C9C",
"K	c #A6A6A4",
"L	c #B3B3B3",
"M	c #FDFDFD",
"N	c #8A8A8C",
"O	c #B6B6B6",
"P	c #ABABAB",
"Q	c #EFEFEF",
"                    ",
"                    ",
"        ++++@#      ",
"       +$%%$+&#     ",
"      +*=-;>,+&#    ",
"     +')!~{]^/+&#   ",
"    +%(_:<[}|12+&#  ",
"   +$34567890ab$+&# ",
"  +$$cdefghijklm+n@ ",
" +opqqprostuvwmx+yz ",
" +$pp+rwABCDEmxx+yz ",
" +m$$$$tFGHImxx+Jn@ ",
" +Km$$$$$$$mxx+JL&# ",
" @+Km$$$$$mxx+JL&#  ",
" M&+Km$$$mxx+JL&#   ",
"  M&+Km.mxx+JL&#    ",
"   M&+KNpx+JL&#     ",
"    M&++++JL&#      ",
"     M&OPyO&#       ",
"      M@Qz@#        ",
"                    "};
