/* XPM */
static const char *tool_resize[] = {
"23 23 57 1",
" 	c None",
".	c #CDCAC3",
"+	c #DAD7D0",
"@	c #E3E0D9",
"#	c #DDDAD3",
"$	c #D0CDC6",
"%	c #C5C2BB",
"&	c #C6C1BB",
"*	c #D1CCC6",
"=	c #DED9D3",
"-	c #E4DFD9",
";	c #DBD6D0",
">	c #CEC9C3",
",	c #D1CEC7",
"'	c #C4C1BA",
")	c #080500",
"!	c #C2BFB8",
"~	c #EEEBE4",
"{	c #EFEAE4",
"]	c #C3BEB8",
"^	c #090400",
"/	c #C5C0BA",
"(	c #D2CDC7",
"_	c #D9D6CF",
":	c #D4D1CA",
"<	c #110E07",
"[	c #030000",
"}	c #D7D4CD",
"|	c #CCC9C2",
"1	c #CDC8C2",
"2	c #D8D3CD",
"3	c #040000",
"4	c #120D07",
"5	c #D5D0CA",
"6	c #DAD5CF",
"7	c #040100",
"8	c #120F08",
"9	c #130E08",
"0	c #050000",
"a	c #DCD9D2",
"b	c #D8D5CE",
"c	c #D9D4CE",
"d	c #DDD8D2",
"e	c #D5D2CB",
"f	c #090600",
"g	c #C9C6BF",
"h	c #D6D1CB",
"i	c #CAC5BF",
"j	c #0A0500",
"k	c #DFDCD5",
"l	c #BCB9B2",
"m	c #E0DBD5",
"n	c #BDB8B2",
"o	c #EAE7E0",
"p	c #CECBC4",
"q	c #CFCAC4",
"r	c #EBE6E0",
"                       ",
"                       ",
"                       ",
"                       ",
"                       ",
"                       ",
"                       ",
"                       ",
"        )    ^         ",
"       <[    34        ",
"      [[78[39033       ",
"       [7    03        ",
"        f    j         ",
"                       ",
"                       ",
"                       ",
"                       ",
"                       ",
"                       ",
"                       ",
"                       ",
"                       ",
"                       "};
