/* XPM */
static const char * tool_save[] = {
"16 17 94 2",
"  	c None",
". 	c #EEEEE6",
"+ 	c #595963",
"@ 	c #E6E6F1",
"# 	c #465460",
"$ 	c #FEFEFF",
"% 	c #DEDEEE",
"& 	c #43535F",
"* 	c #D1D1E6",
"= 	c #5E5E66",
"- 	c #FFFFFF",
"; 	c #C5C5DF",
"> 	c #FCF8F9",
", 	c #BDBDDA",
"' 	c #BFBFDC",
") 	c #C4C4DF",
"! 	c #FBF7F7",
"~ 	c #D6D6E9",
"{ 	c #CBCBE3",
"] 	c #B5B5D6",
"^ 	c #BCBCDA",
"/ 	c #C6C6E0",
"( 	c #CFCFE5",
"_ 	c #CEC9DC",
": 	c #D8D8EA",
"< 	c #DADAEB",
"[ 	c #313134",
"} 	c #807FB3",
"| 	c #AEAED1",
"1 	c #B7B7D7",
"2 	c #E2E2EF",
"3 	c #9393C0",
"4 	c #E3E3F0",
"5 	c #DDD5E1",
"6 	c #E8E8F3",
"7 	c #2F2F31",
"8 	c #7B7BAF",
"9 	c #8383B5",
"0 	c #151518",
"a 	c #000000",
"b 	c #C0C0DC",
"c 	c #8E8FBD",
"d 	c #8989BA",
"e 	c #E7EEF6",
"f 	c #282829",
"g 	c #6867A1",
"h 	c #7373A9",
"i 	c #DEDEDF",
"j 	c #E7E7E2",
"k 	c #A7A7CD",
"l 	c #8080B3",
"m 	c #7B7CB0",
"n 	c #7070A8",
"o 	c #6D6DA5",
"p 	c #DDDDDE",
"q 	c #E3E3DC",
"r 	c #6E6EA6",
"s 	c #6969A2",
"t 	c #7A79AF",
"u 	c #A7A7AC",
"v 	c #E6E6DE",
"w 	c #E2E2DA",
"x 	c #DCDCEC",
"y 	c #60609A",
"z 	c #7777AC",
"A 	c #99999E",
"B 	c #9C9C97",
"C 	c #B4B4AE",
"D 	c #E8E8E1",
"E 	c #5D5D98",
"F 	c #7676AB",
"G 	c #BCBCB5",
"H 	c #484785",
"I 	c #575793",
"J 	c #9898A3",
"K 	c #A0A09A",
"L 	c #AEAEA8",
"M 	c #C7C7C0",
"N 	c #E1E1D9",
"O 	c #8787B8",
"P 	c #9797A2",
"Q 	c #9D9D98",
"R 	c #A2A29D",
"S 	c #B0B0AA",
"T 	c #CACAC3",
"U 	c #E0E0D8",
"V 	c #EBEBE3",
"W 	c #E4E4DC",
"X 	c #08080F",
"Y 	c #9D9DAE",
"Z 	c #BABAB3",
"` 	c #D3D3CC",
" .	c #E5E5DD",
"..	c #ECECE4",
"                +               ",
"              + @ +             ",
"            + @ # $ +           ",
"          + % & $ $ $ +         ",
"        + * = $ $ $ $ - +       ",
"      + ; + $ > $ $ $ $ $ +     ",
"    + , ' ) + $ ! ~ ~ ~ ~ { +   ",
"  + ] ^ + ) / + ( _ ~ : < [ } + ",
"+ | 1 + 2 + ( 3 + 4 5 6 7 8 9 0 ",
"a b + % 2 2 + c d + e f g h 0   ",
"j a 2 2 k 2 2 + l m 0 n o 0     ",
"  q a : 2 k 2 k + r s t 0 u     ",
"    w a x 2 3 k 0 y z 0 A B C   ",
"      v a k k 0 E F 0 B B B B G ",
"        D a 0 H I 0 J B B K L M ",
"          N a O 0 P Q R S T     ",
"            W X Y Z `           "};
