/* XPM */
static const char *tool_quit[] = {
"16 16 151 2",
"  	c None",
". 	c #EFEDDF",
"+ 	c #CE9687",
"@ 	c #A01105",
"# 	c #B14030",
"$ 	c #AF3829",
"% 	c #AE3829",
"& 	c #AF3526",
"* 	c #AC3525",
"= 	c #AC3423",
"- 	c #AC3122",
"; 	c #AC3120",
"> 	c #AA2E20",
", 	c #AC3421",
"' 	c #9F1005",
") 	c #B0776C",
"! 	c #B3B1A6",
"~ 	c #D0988A",
"{ 	c #DDB593",
"] 	c #C6714C",
"^ 	c #C77954",
"/ 	c #C87C54",
"( 	c #C87E58",
"_ 	c #CA8158",
": 	c #C98159",
"< 	c #CC855A",
"[ 	c #CA875C",
"} 	c #CA8A5E",
"| 	c #CE8F63",
"1 	c #D5A576",
"2 	c #A72718",
"3 	c #AD7569",
"4 	c #DCB492",
"5 	c #B23E18",
"6 	c #B8532E",
"7 	c #B95831",
"8 	c #BC5C36",
"9 	c #BD6038",
"0 	c #D39173",
"a 	c #D59376",
"b 	c #C06B43",
"c 	c #C26E48",
"d 	c #C4724B",
"e 	c #C4754E",
"f 	c #C67953",
"g 	c #D39E72",
"h 	c #A01205",
"i 	c #B03F2F",
"j 	c #C87C57",
"k 	c #B8522C",
"l 	c #BB5E37",
"m 	c #C46B49",
"n 	c #F7D4C5",
"o 	c #FFFFFF",
"p 	c #F3D0BF",
"q 	c #CA815D",
"r 	c #C67B54",
"s 	c #C77E57",
"t 	c #D09468",
"u 	c #A82B19",
"v 	c #C77753",
"w 	c #F8D7C8",
"x 	c #DCA288",
"y 	c #E3B097",
"z 	c #FFEFE5",
"A 	c #FFFAF3",
"B 	c #CD8863",
"C 	c #C8825C",
"D 	c #CF9469",
"E 	c #A72413",
"F 	c #E2AB93",
"G 	c #C26D46",
"H 	c #F2CFBD",
"I 	c #EEC6B3",
"J 	c #C57750",
"K 	c #E5B59E",
"L 	c #F0CDBA",
"M 	c #C98661",
"N 	c #D1956B",
"O 	c #A72312",
"P 	c #C87754",
"Q 	c #C3714A",
"R 	c #FFF0E6",
"S 	c #FFF2E8",
"T 	c #CA8963",
"U 	c #D0976D",
"V 	c #A52110",
"W 	c #D8997B",
"X 	c #C4744D",
"Y 	c #FFF0E7",
"Z 	c #C8815A",
"` 	c #ECC5B1",
" .	c #D7A07F",
"..	c #D19B72",
"+.	c #A51F0E",
"@.	c #D89B7E",
"#.	c #FFF1E7",
"$.	c #C98560",
"%.	c #EDC7B2",
"&.	c #DCAC90",
"*.	c #D29D76",
"=.	c #A51D0C",
"-.	c #CC815E",
";.	c #CA8862",
">.	c #FFF5EC",
",.	c #D39977",
"'.	c #D79F79",
").	c #A21B09",
"!.	c #DBA285",
"~.	c #FADFD1",
"{.	c #F1CFBC",
"].	c #E9C0A9",
"^.	c #F9DED0",
"/.	c #D59E7F",
"(.	c #D4A17D",
"_.	c #A21907",
":.	c #CA8A5F",
"<.	c #CF8B6A",
"[.	c #E2B39A",
"}.	c #E3B59B",
"|.	c #FCE4D5",
"1.	c #FFFFF9",
"2.	c #D9A185",
"3.	c #D5A283",
"4.	c #D7A685",
"5.	c #A21705",
"6.	c #AC3422",
"7.	c #CC8A5F",
"8.	c #C5764F",
"9.	c #FDE7DA",
"0.	c #D49E7F",
"a.	c #DAA98D",
"b.	c #D7A585",
"c.	c #A21905",
"d.	c #D5A677",
"e.	c #CF926E",
"f.	c #E1B195",
"g.	c #E1B59A",
"h.	c #D9A88B",
"i.	c #E5C8AE",
"j.	c #C77C57",
"k.	c #9F1105",
"l.	c #D1998C",
"m.	c #D7A582",
"n.	c #DBB092",
"o.	c #C77955",
"p.	c #A01201",
"q.	c #AD776A",
"r.	c #CF9789",
"s.	c #A11703",
"t.	c #B0796D",
"  + @ # $ % & * = - ; > , ' )   ",
"~ $ { ] ^ / ( _ : < [ } | 1 2 3 ",
"@ 4 5 6 7 8 9 0 a b c d e f g h ",
"i j k l m n o o o o p q r s t u ",
"$ v 7 m o o w x y z o A B C D E ",
"% / 8 n o F G H I J K o L M N O ",
"& ( P o w G Q z R r s S o T U V ",
"* _ 0 o W Q X R Y s Z ` o  ...+.",
"= : a o @.X J Y #.Z $.%.o &.*.=.",
"- < -.o p J r #.S $.;.>.o ,.'.).",
"; [ c z o !.s ~.{.;.].o ^./.(._.",
"> :.d <.o o ~.[.}.|.o 1.2.3.4.5.",
"6.7.8.r B ~.o o o o 9.2.0.a.b.c.",
"' d.f s C M e.f.g.,./.3.h.i.j.k.",
"l.2 g t D N U ..*.'.(.m.n.o.p.q.",
"  r.h u E O V +.=.)._.5.s.k.t.  "};
