/* XPM */
static const char * tool_undo[] = {
"16 16 98 2",
"  	c None",
". 	c #DFE9D7",
"+ 	c #E5EBDC",
"@ 	c #A7D7A1",
"# 	c #45BD3A",
"$ 	c #5BBF53",
"% 	c #DDE8D6",
"& 	c #C2DDBC",
"* 	c #3BB639",
"= 	c #76DF76",
"- 	c #59CD59",
"; 	c #74C470",
"> 	c #DFE8D8",
", 	c #C3DCBD",
"' 	c #3BB33A",
") 	c #4EE44E",
"! 	c #6FFD6F",
"~ 	c #69F969",
"{ 	c #36CD35",
"] 	c #65BE62",
"^ 	c #E4EADC",
"/ 	c #BED8B7",
"( 	c #37B135",
"_ 	c #17DE17",
": 	c #28FF28",
"< 	c #24F924",
"[ 	c #09C909",
"} 	c #72B86E",
"| 	c #DCE6D5",
"1 	c #30942E",
"2 	c #029802",
"3 	c #02B302",
"4 	c #03D103",
"5 	c #03F803",
"6 	c #03F203",
"7 	c #03C803",
"8 	c #02B002",
"9 	c #0B8B0B",
"0 	c #83BB7E",
"a 	c #E8EBE1",
"b 	c #C3D8BD",
"c 	c #B7D2B1",
"d 	c #24A523",
"e 	c #01DC01",
"f 	c #01E101",
"g 	c #05AA05",
"h 	c #63A860",
"i 	c #C0D6BA",
"j 	c #DBE4D4",
"k 	c #E9EBE2",
"l 	c #B3CEAD",
"m 	c #3D923B",
"n 	c #E6E9DE",
"o 	c #59A956",
"p 	c #00BB00",
"q 	c #00D800",
"r 	c #00CA00",
"s 	c #0F980E",
"t 	c #7FAE7B",
"u 	c #C9D9C2",
"v 	c #C5D6BE",
"w 	c #77A973",
"x 	c #257B24",
"y 	c #75AA71",
"z 	c #A8C5A2",
"A 	c #178D17",
"B 	c #00C300",
"C 	c #00CC00",
"D 	c #07A007",
"E 	c #1F8B1E",
"F 	c #2A7F29",
"G 	c #298228",
"H 	c #1D891C",
"I 	c #0C7B0C",
"J 	c #5C9658",
"K 	c #DAE2D2",
"L 	c #89B085",
"M 	c #148913",
"N 	c #00A800",
"O 	c #00B800",
"P 	c #00BE00",
"Q 	c #00B600",
"R 	c #00A500",
"S 	c #118E10",
"T 	c #6B9F68",
"U 	c #DFE4D8",
"V 	c #A1C09B",
"W 	c #408F3E",
"X 	c #077B07",
"Y 	c #008500",
"Z 	c #008400",
"` 	c #138212",
" .	c #52974F",
"..	c #A0BE9A",
"+.	c #E2E7DA",
"@.	c #DAE1D3",
"#.	c #DAE3D2",
"$.	c #DCE3D5",
"                                ",
"                                ",
"        . +                     ",
"      @ # $ %                   ",
"    & * = - ; >                 ",
"  , ' ) ! ~ { ] ^               ",
"/ ( _ : : : < [ } |             ",
"1 2 3 4 5 6 7 8 9 0 a           ",
"b b c d e f g h i j       k l m ",
"    n o p q r s t u     v w x y ",
"      z A B C B D E F G H I J K ",
"        L M N O P P Q R S T U   ",
"          V W X Y Z `  ...n     ",
"            +.@.#.#.$.n         ",
"                                ",
"                                "};
