/* XPM */
static const char *tool_move[] = {
"23 23 3 1",
" 	c None",
".	c #000000",
"+	c #929292",
"                       ",
"                       ",
"                       ",
"                       ",
"          .            ",
"         ...           ",
"        .....          ",
"          .+++         ",
"          .+           ",
"     .    .+   .       ",
"    ..    .+   ..      ",
"   ...............     ",
"    ..++++.++++..++    ",
"     .+   .+   .++     ",
"      +   .+    +      ",
"          .+           ",
"        .....          ",
"         ...+          ",
"          .+           ",
"          +            ",
"                       ",
"                       ",
"                       "};
